<svg width="32" height="32" viewBox="0 0 32 32" fill="none" xmlns="http://www.w3.org/2000/svg">
<g clip-path="url(#clip0_5042_1558)">
<rect width="32" height="32" rx="4" fill="#101010"/>
<rect width="32" height="32" rx="4" fill="#101010"/>
<path fill-rule="evenodd" clip-rule="evenodd" d="M12.9441 27H17.8271L18.9499 25.9428V23.9521L17.8271 22.8946H14.7403V21.67H18.6973V20.3926H13.178V24.1016H16.9574L17.3596 24.4893V25.3438L16.9574 25.7226H12.9441V27ZM17.9769 13.8681V12.6963H13.7674V13.8681H15.0769V18.1319H13.7674V19.3037H17.9769V18.1319H16.6672V13.8681H17.9769ZM6 27H11.9589V25.7226H7.59026V24.8066L8.04883 24.3747H10.9673L12.0058 23.3969V21.3617L10.9768 20.3926H6.26208V21.67H10.1069L10.4155 21.961V22.877L10.1069 23.1591H7.2255L6 24.3129V27ZM12.7632 18.0176V13.9827L11.3976 12.6963H6.11219V19.3037H11.3976L12.7632 18.0176ZM12.1272 8.73528L10.9673 7.6429H7.93633L7.60896 7.34325V6.56813L7.91764 6.27743H11.7998V5H7.13201L6.0187 6.04821V7.82794L7.1786 8.92032H10.2095L10.5369 9.22864V10.039L10.2282 10.33H6.14039V11.6074H11.0142L12.1272 10.5589V8.73528ZM18.9591 5H12.4484V6.27743H14.9086V11.6074H16.4989V6.27743H18.9591V5ZM19.0995 18.0176L20.465 19.3037H24.4502L25.8161 18.0176V13.9827L24.4502 12.6963H20.465L19.0995 13.9827V18.0176ZM25.9531 5H24.3628V9.74856L23.7734 10.3034H21.9961L21.407 9.74856V5H19.8167V10.2682L21.2384 11.6074H24.5311L25.9531 10.2682V5ZM26 24.0283L24.7932 22.8917H21.388V22.1371L21.8931 21.67H25.5322V20.3926H21.117L19.8167 21.6172V25.8637L21.0232 27H24.7932L26 25.8637V24.0283ZM21.7997 25.7226L21.388 25.3438V24.0987H24.0073L24.4094 24.4775V25.3438L24.0073 25.7226H21.7997ZM23.6643 13.9737L24.2258 14.5023V17.4977L23.6643 18.0263H21.251L20.6897 17.4977V14.5023L21.251 13.9737H23.6643ZM7.70245 18.0263V13.9737H10.6117L11.173 14.5023V17.4977L10.6117 18.0263H7.70245Z" fill="#00DD00"/>
</g>
<defs>
<clipPath id="clip0_5042_1558">
<rect width="32" height="32" rx="4" fill="white"/>
</clipPath>
</defs>
</svg>
