<svg width="2076" height="699" viewBox="0 0 2076 699" fill="none" xmlns="http://www.w3.org/2000/svg">
<g clip-path="url(#clip0_4674_8257)">
<rect width="715" height="144" transform="translate(313 404.49) rotate(-20.8505)" fill="#353535"/>
<path d="M420.991 464.161C412.119 467.54 404.755 467.834 398.898 465.042C393.071 462.182 388.364 456.042 384.777 446.622C381.284 437.451 380.805 429.901 383.34 423.97C385.925 418.02 391.753 413.318 400.824 409.863C416.274 403.978 426.903 407.235 432.71 419.634L424.187 422.88C422.27 419.045 419.673 416.723 416.398 415.916C413.173 415.09 408.969 415.664 403.785 417.638C397.306 420.106 393.311 423.254 391.802 427.082C390.261 430.979 390.82 436.416 393.477 443.394C396.211 450.571 399.424 455.111 403.117 457.015C406.878 458.949 411.899 458.721 418.179 456.329C428.845 452.266 432.844 445.835 430.177 437.035L438.85 433.732C440.914 440.65 440.427 446.714 437.389 451.923C434.332 457.082 428.866 461.162 420.991 464.161ZM472.233 443.36L463.711 446.606L451.495 414.533L439.309 419.175L436.604 412.073L469.499 399.544L472.204 406.646L460.018 411.287L472.233 443.36ZM499.221 386.939C505.202 384.661 510.215 384.635 514.259 386.862C518.352 389.069 521.738 393.687 524.414 400.714C527.167 407.941 527.793 413.781 526.293 418.233C524.792 422.685 521.027 426.06 514.996 428.357C507.969 431.033 502.181 430.298 497.635 426.152L506.405 449.178L497.882 452.424L476.697 396.802L485.22 393.556L487.697 400.06C488.352 393.989 492.194 389.616 499.221 386.939ZM510.198 422.052C514.185 420.533 516.603 418.414 517.45 415.694C518.328 412.906 517.828 409.044 515.948 404.11C514.069 399.176 511.927 396.025 509.523 394.658C507.15 393.222 503.995 393.254 500.057 394.753C491.435 398.037 488.642 403.667 491.68 411.641L492.79 414.557C494.29 418.494 496.519 421.126 499.479 422.453C502.488 423.761 506.061 423.627 510.198 422.052ZM559.421 411.436C552.394 414.113 546.624 414.399 542.113 412.293C537.601 410.188 533.979 405.547 531.245 398.369C528.55 391.292 528.186 385.467 530.153 380.894C532.121 376.32 536.619 372.695 543.646 370.019C550.524 367.399 556.229 367.167 560.759 369.322C565.32 371.409 568.939 375.966 571.616 382.993C574.35 390.17 574.732 396.045 572.765 400.619C570.797 405.192 566.349 408.798 559.421 411.436ZM556.688 404.259C560.974 402.627 563.575 400.466 564.492 397.777C565.458 395.069 564.992 391.223 563.093 386.239C561.214 381.305 559.022 378.173 556.519 376.844C554.046 375.446 550.666 375.563 546.38 377.196C542.094 378.828 539.443 381.008 538.427 383.735C537.46 386.443 537.908 390.239 539.768 395.123C541.666 400.107 543.877 403.289 546.399 404.668C548.922 406.047 552.352 405.911 556.688 404.259ZM595.799 351.439L610.228 345.944L625.149 385.118L616.626 388.365L604.411 356.292L603.513 356.634L602.272 393.832L587.843 399.327L572.922 360.152L581.445 356.906L593.661 388.979L594.483 388.666L595.799 351.439ZM653.003 374.51L644.48 377.756L632.265 345.683L620.079 350.324L617.374 343.222L650.269 330.693L652.974 337.796L640.788 342.437L653.003 374.51ZM701.403 333.818L702.286 336.135L671.783 347.753C673.589 351.745 675.677 354.231 678.048 355.211C680.419 356.192 683.598 355.923 687.585 354.404C693.766 352.05 696.493 348.871 695.767 344.867L703.766 341.821C705.012 346.14 704.482 349.994 702.178 353.383C699.854 356.722 695.851 359.474 690.169 361.638C683.341 364.239 677.696 364.477 673.235 362.352C668.754 360.178 665.147 355.502 662.413 348.325C659.718 341.248 659.314 335.467 661.201 330.981C663.069 326.446 667.367 322.897 674.096 320.334C680.924 317.734 686.475 317.474 690.749 319.556C695.023 321.637 698.575 326.391 701.403 333.818ZM676.904 327.483C673.365 328.831 671.005 330.5 669.823 332.491C668.641 334.482 668.442 337.183 669.228 340.594L690.908 332.336C689.513 329.272 687.727 327.355 685.551 326.586C683.375 325.817 680.492 326.116 676.904 327.483ZM705.144 309.793L735.571 298.204L750.492 337.379L741.969 340.625L729.754 308.552L716.372 313.649L719.589 322.097C722.797 330.52 723.849 337.253 722.745 342.297C721.691 347.321 718.398 350.886 712.866 352.994L710.161 345.891C712.726 344.686 714.076 342.46 714.209 339.213C714.373 335.898 713.325 331.274 711.066 325.343L705.144 309.793ZM761.239 333.285L746.318 294.111L754.841 290.865L759.995 304.396L769.041 300.951C774.324 298.939 778.635 298.495 781.974 299.62C785.295 300.696 787.771 303.377 789.404 307.663C791.093 312.099 791.075 315.872 789.349 318.983C787.605 322.045 784.091 324.582 778.808 326.594L761.239 333.285ZM771.746 308.053L762.7 311.499L767.057 322.937L776.103 319.492C778.595 318.542 780.218 317.411 780.973 316.096C781.728 314.781 781.707 313.077 780.909 310.984C780.15 308.99 779.061 307.778 777.641 307.349C776.203 306.869 774.238 307.104 771.746 308.053ZM821.078 311.779C814.2 314.398 808.505 314.655 803.993 312.55C799.532 310.425 795.934 305.775 793.201 298.598C790.486 291.47 790.097 285.655 792.034 281.15C793.952 276.596 798.375 273 805.303 270.361C810.985 268.197 815.939 267.794 820.166 269.152C824.374 270.46 827.582 273.489 829.791 278.241L821.493 281.401C819.051 276.339 814.59 275.042 808.111 277.51C803.925 279.104 801.358 281.28 800.411 284.038C799.444 286.746 799.892 290.542 801.752 295.426C803.65 300.41 805.836 303.601 808.309 305C810.763 306.348 814.133 306.206 818.419 304.573C824.898 302.105 827.32 297.901 825.686 291.961L833.984 288.8C835.571 294.017 835.242 298.622 832.997 302.616C830.782 306.541 826.809 309.595 821.078 311.779ZM864.729 293.869L856.206 297.115L843.99 265.043L831.804 269.684L829.099 262.582L861.994 250.053L864.699 257.155L852.513 261.797L864.729 293.869ZM904.894 254.516L905.179 255.263C910.066 255.057 913.392 257.272 915.157 261.907C917.986 269.333 914.491 274.916 904.672 278.656L884.113 286.486L869.192 247.311L889.901 239.424C898.872 236.007 904.601 237.563 907.088 244.092C907.885 246.186 908.107 248.041 907.753 249.66C907.43 251.21 906.478 252.828 904.894 254.516ZM880.42 251.168L883.524 259.316L895.336 254.818C897.28 254.077 898.536 253.256 899.106 252.354C899.676 251.452 899.676 250.254 899.106 248.759C898.062 246.018 895.646 245.368 891.858 246.811L880.42 251.168ZM886.229 266.419L889.93 276.138L901.817 271.61C906.054 269.997 907.584 267.645 906.407 264.555C905.704 262.711 904.712 261.605 903.431 261.237C902.13 260.819 900.359 261.037 898.116 261.891L886.229 266.419ZM946.295 264.087C939.267 266.763 933.498 267.049 928.986 264.943C924.475 262.838 920.852 258.197 918.119 251.02C915.423 243.942 915.059 238.117 917.027 233.544C918.995 228.971 923.492 225.346 930.52 222.669C937.398 220.049 943.102 219.817 947.633 221.973C952.194 224.059 955.813 228.616 958.49 235.644C961.223 242.821 961.606 248.696 959.638 253.269C957.67 257.842 953.223 261.448 946.295 264.087ZM943.561 256.91C947.848 255.277 950.449 253.116 951.365 250.428C952.331 247.72 951.865 243.874 949.967 238.89C948.088 233.955 945.896 230.824 943.392 229.494C940.919 228.096 937.54 228.214 933.253 229.846C928.967 231.479 926.316 233.658 925.3 236.385C924.334 239.093 924.781 242.889 926.641 247.774C928.54 252.758 930.75 255.939 933.273 257.318C935.796 258.697 939.225 258.561 943.561 256.91Z" fill="#00DD00"/>
</g>
<g clip-path="url(#clip1_4674_8257)">
<rect width="346" height="144" transform="translate(1767.2 100) rotate(58.8208)" fill="#353535"/>
<path d="M1738.48 178.25C1746.92 173.142 1754.32 171.349 1760.66 172.871C1767.05 174.365 1772.76 179.265 1777.78 187.569C1782.81 195.874 1784.5 203.203 1782.86 209.557C1781.27 215.883 1776.25 221.601 1767.81 226.709C1759.27 231.872 1751.79 233.72 1745.35 232.254C1738.96 230.759 1733.26 225.86 1728.23 217.555C1723.21 209.251 1721.51 201.921 1723.15 195.568C1724.84 189.186 1729.95 183.414 1738.48 178.25ZM1763 218.769C1769.48 214.848 1773.24 210.86 1774.28 206.804C1775.43 202.739 1774.23 197.763 1770.67 191.877C1767.1 185.99 1763.24 182.593 1759.08 181.685C1754.98 180.795 1749.72 182.296 1743.29 186.19C1736.76 190.138 1732.94 194.168 1731.81 198.279C1730.66 202.463 1731.84 207.453 1735.35 213.248C1738.88 219.088 1742.78 222.435 1747.04 223.288C1751.29 224.141 1756.61 222.635 1763 218.769ZM1798.64 248.309C1801.85 253.602 1802.67 258.406 1801.1 262.72C1799.58 267.006 1795.58 271.11 1789.1 275.031C1782.57 278.979 1776.86 280.409 1771.97 279.321C1767.07 278.233 1762.73 274.563 1758.94 268.312C1755.08 261.923 1753.79 256.344 1755.08 251.574C1756.42 246.776 1760.39 242.375 1767.01 238.372L1772.9 234.81C1780.88 229.978 1787.97 227.934 1794.15 228.679C1800.37 229.47 1806.67 233.448 1813.06 240.613L1822.75 251.676L1816.11 255.694L1806.63 244.973C1802.76 240.643 1799.07 238.045 1795.56 237.18C1792.09 236.288 1788.1 236.765 1783.61 238.611C1786.47 238.5 1789.21 239.308 1791.81 241.036C1794.46 242.737 1796.74 245.161 1798.64 248.309ZM1784.45 267.187C1788.92 264.481 1791.62 261.845 1792.57 259.281C1793.55 256.689 1793.01 253.681 1790.94 250.259C1788.54 246.289 1785.8 243.986 1782.74 243.348C1779.72 242.682 1775.98 243.666 1771.53 246.299C1767.03 248.959 1764.32 251.69 1763.39 254.492C1762.54 257.313 1763.25 260.594 1765.52 264.335C1767.81 268.123 1770.37 270.249 1773.21 270.714C1776.09 271.151 1779.84 269.975 1784.45 267.187ZM1824.44 293.258L1829.25 301.198L1787.54 313.25L1781.72 314.905C1773.15 317.342 1766.35 314.386 1761.29 306.036C1760.13 304.12 1759.46 302.224 1759.26 300.35L1765.83 296.374C1766.03 298.248 1766.66 300.075 1767.74 301.855C1770.7 306.737 1774.76 308.455 1779.93 307.009L1783.23 306.132L1779.34 299.698L1809.37 268.345L1814.17 276.284L1789.61 301.992L1790.32 303.155L1824.44 293.258ZM1832.55 344.206L1831.86 344.62C1832.94 349.391 1831.36 353.06 1827.12 355.628C1820.32 359.742 1814.2 357.304 1808.76 348.315L1797.37 329.493L1833.23 307.791L1844.71 326.75C1849.68 334.963 1849.17 340.878 1843.2 344.495C1841.28 345.655 1839.49 346.206 1837.84 346.148C1836.26 346.108 1834.49 345.461 1832.55 344.206ZM1831.45 319.528L1823.99 324.042L1830.54 334.857C1831.61 336.636 1832.65 337.725 1833.64 338.124C1834.63 338.523 1835.81 338.308 1837.17 337.48C1839.68 335.961 1839.89 333.468 1837.79 330L1831.45 319.528ZM1817.49 327.977L1808.59 333.361L1815.18 344.244C1817.53 348.122 1820.11 349.206 1822.94 347.494C1824.63 346.472 1825.54 345.298 1825.67 343.971C1825.85 342.617 1825.32 340.913 1824.08 338.86L1817.49 327.977ZM1821.48 369.33L1857.34 347.627L1862.06 355.43L1849.67 362.926L1854.69 371.208C1857.61 376.045 1858.82 380.207 1858.31 383.693C1857.85 387.153 1855.66 390.069 1851.73 392.444C1847.67 394.902 1843.96 395.56 1840.59 394.421C1837.26 393.253 1834.14 390.251 1831.21 385.414L1821.48 369.33ZM1848.18 375.143L1843.17 366.861L1832.7 373.198L1837.71 381.48C1839.09 383.761 1840.5 385.155 1841.93 385.662C1843.35 386.169 1845.03 385.843 1846.94 384.683C1848.77 383.578 1849.77 382.29 1849.93 380.816C1850.15 379.315 1849.56 377.424 1848.18 375.143Z" fill="#00DD00"/>
</g>
<g clip-path="url(#clip2_4674_8257)">
<rect width="801" height="144" transform="translate(1300.32 344) rotate(14.6078)" fill="#DDDDDD"/>
<path d="M1334.3 420.111C1336.79 410.563 1340.84 404.123 1346.45 400.789C1352.07 397.405 1359.58 396.936 1368.97 399.384C1378.36 401.832 1384.69 405.905 1387.94 411.604C1391.21 417.251 1391.6 424.848 1389.11 434.396C1386.59 444.047 1382.52 450.59 1376.88 454.027C1371.26 457.412 1363.75 457.88 1354.36 455.432C1344.97 452.984 1338.64 448.911 1335.39 443.212C1332.15 437.462 1331.79 429.762 1334.3 420.111ZM1380.13 432.055C1382.04 424.727 1381.95 419.247 1379.87 415.618C1377.86 411.898 1373.53 409.17 1366.87 407.435C1360.21 405.7 1355.07 405.959 1351.46 408.213C1347.9 410.428 1345.18 415.174 1343.28 422.451C1341.36 429.832 1341.42 435.388 1343.48 439.121C1345.58 442.919 1349.91 445.673 1356.46 447.381C1363.07 449.103 1368.19 448.785 1371.84 446.428C1375.48 444.072 1378.25 439.281 1380.13 432.055ZM1424.43 445.916L1428.53 430.201L1437.35 432.501L1426.78 473.066L1417.96 470.766L1422.51 453.271L1404.94 448.691L1400.38 466.186L1391.56 463.886L1402.13 423.321L1410.95 425.621L1406.86 441.336L1424.43 445.916ZM1451.8 436.267L1483.31 444.478L1472.74 485.043L1463.91 482.743L1472.57 449.533L1458.71 445.921L1456.43 454.669C1454.16 463.391 1451.11 469.486 1447.28 472.953C1443.51 476.434 1438.76 477.428 1433.03 475.935L1434.95 468.581C1437.74 469.087 1440.13 468.057 1442.12 465.489C1444.17 462.884 1446 458.51 1447.6 452.369L1451.8 436.267ZM1511.07 450.475C1516.91 451.995 1520.85 454.401 1522.92 457.695C1525.03 461.001 1525.37 465.39 1523.95 470.861L1517.23 496.64L1508.79 494.44L1510.49 487.938C1506.78 492.428 1501.91 493.887 1495.87 492.313C1486.17 489.784 1482.41 484.314 1484.61 475.901C1486.91 467.076 1493.71 464.136 1505.01 467.082C1508.88 468.091 1512.14 469.521 1514.8 471.371L1515.51 468.662C1516.28 465.72 1516.14 463.396 1515.09 461.691C1514.06 459.935 1512.08 458.673 1509.14 457.907C1506.3 457.167 1504.13 457.016 1502.64 457.454C1501.16 457.84 1500.1 458.968 1499.44 460.837L1491.16 458.678C1493.75 450.425 1500.39 447.69 1511.07 450.475ZM1500.05 485.796C1503.09 486.59 1505.75 486.429 1508.03 485.313C1510.3 484.197 1511.84 482.337 1512.62 479.732L1512.97 478.416C1510.36 476.579 1507.3 475.203 1503.79 474.288C1497.86 472.741 1494.35 474.032 1493.28 478.161C1492.32 481.825 1494.58 484.37 1500.05 485.796ZM1559.59 457.581C1555.15 456.424 1552.12 454.615 1550.51 452.154C1548.9 449.641 1548.63 446.346 1549.69 442.269L1556.27 443.984C1555.72 446.1 1555.84 447.757 1556.63 448.955C1557.42 450.153 1558.93 451.041 1561.14 451.62C1563.36 452.198 1565.08 452.151 1566.31 451.477C1567.58 450.817 1568.49 449.429 1569.05 447.313L1575.7 449.048C1574.63 453.177 1572.78 455.921 1570.17 457.279C1567.61 458.65 1564.08 458.751 1559.59 457.581ZM1562.43 465.099L1577.37 468.993L1566.8 509.558L1557.97 507.258L1566.63 474.047L1565.7 473.805L1543.11 503.384L1528.17 499.49L1538.74 458.925L1547.56 461.225L1538.91 494.436L1539.76 494.658L1562.43 465.099ZM1610.78 494.485L1614.88 478.77L1623.71 481.07L1613.13 521.635L1604.31 519.335L1608.87 501.839L1591.29 497.259L1586.74 514.755L1577.91 512.455L1588.48 471.89L1597.31 474.19L1593.21 489.905L1610.78 494.485ZM1655.84 514.991L1629.21 508.05L1631.11 500.773L1657.74 507.714L1655.84 514.991ZM1673.83 494.135L1708.75 503.234L1698.18 543.799L1689.35 541.499L1698.01 508.288L1680.74 503.789L1672.09 537L1663.26 534.7L1673.83 494.135ZM1743.94 511.167C1750.14 512.781 1754.23 515.668 1756.24 519.827C1758.29 524 1758.37 529.725 1756.47 537.002C1754.52 544.485 1751.64 549.605 1747.84 552.361C1744.03 555.117 1739.01 555.682 1732.77 554.054C1725.49 552.157 1721.2 548.202 1719.9 542.186L1713.69 566.03L1704.86 563.73L1719.87 506.134L1728.7 508.434L1726.94 515.169C1731 510.604 1736.67 509.27 1743.94 511.167ZM1732.51 546.135C1736.64 547.211 1739.84 546.887 1742.11 545.163C1744.44 543.401 1746.28 539.966 1747.61 534.856C1748.94 529.747 1749.02 525.938 1747.86 523.43C1746.76 520.884 1744.17 519.079 1740.09 518.017C1731.16 515.69 1725.62 518.655 1723.47 526.912L1722.68 529.932C1721.62 534.009 1721.91 537.446 1723.55 540.244C1725.24 543.055 1728.23 545.018 1732.51 546.135ZM1778.77 566.043C1771.49 564.147 1766.62 561.032 1764.17 556.7C1761.72 552.368 1761.46 546.486 1763.4 539.054C1765.31 531.726 1768.39 526.77 1772.65 524.186C1776.9 521.603 1782.67 521.259 1789.94 523.156C1797.07 525.012 1801.85 528.132 1804.29 532.516C1806.79 536.861 1807.1 542.673 1805.2 549.95C1803.26 557.381 1800.17 562.389 1795.91 564.972C1791.66 567.556 1785.94 567.913 1778.77 566.043ZM1780.7 558.611C1785.14 559.768 1788.51 559.517 1790.82 557.859C1793.18 556.213 1795.03 552.81 1796.38 547.649C1797.71 542.54 1797.74 538.718 1796.47 536.183C1795.27 533.609 1792.45 531.744 1788.01 530.588C1783.57 529.431 1780.15 529.668 1777.74 531.3C1775.38 532.945 1773.54 536.297 1772.22 541.354C1770.88 546.515 1770.83 550.389 1772.09 552.976C1773.34 555.563 1776.21 557.441 1780.7 558.611ZM1854.29 541.166L1845.64 574.377L1849.66 575.426L1844.38 595.709L1835.55 593.409L1838.92 580.481L1812.44 573.58L1809.07 586.508L1800.25 584.208L1805.54 563.926L1809.48 564.955C1813.44 562.899 1816.72 556.864 1819.33 546.852L1822.94 532.995L1854.29 541.166ZM1818.7 567.356L1836.81 572.077L1843.55 546.221L1829.85 542.65L1827.77 550.623C1825.95 557.59 1822.93 563.168 1818.7 567.356ZM1883.1 547.434C1888.93 548.954 1892.88 551.361 1894.94 554.654C1897.06 557.961 1897.4 562.35 1895.97 567.82L1889.26 593.599L1880.82 591.4L1882.51 584.897C1878.81 589.388 1873.93 590.846 1867.9 589.273C1858.19 586.744 1854.44 581.273 1856.63 572.861C1858.93 564.036 1865.73 561.096 1877.03 564.042C1880.91 565.051 1884.17 566.48 1886.83 568.331L1887.54 565.621C1888.3 562.679 1888.16 560.356 1887.12 558.651C1886.09 556.894 1884.1 555.633 1881.16 554.866C1878.32 554.126 1876.16 553.975 1874.67 554.413C1873.19 554.799 1872.12 555.927 1871.47 557.796L1863.19 555.638C1865.78 547.384 1872.42 544.65 1883.1 547.434ZM1872.07 582.756C1875.12 583.549 1877.78 583.388 1880.05 582.273C1882.33 581.157 1883.86 579.297 1884.65 576.691L1884.99 575.375C1882.39 573.538 1879.33 572.162 1875.82 571.248C1869.88 569.701 1866.38 570.992 1865.3 575.121C1864.35 578.785 1866.6 581.33 1872.07 582.756ZM1953.3 610.29L1944.08 607.889L1940.13 588.174L1934.09 586.601L1929.53 604.096L1920.71 601.796L1925.27 584.301L1919.07 582.686L1906.15 598.003L1896.94 595.602L1912.28 577.36L1908.44 555.279L1917.58 557.66L1920.68 575.251L1927.18 576.946L1931.28 561.231L1940.1 563.531L1936.01 579.246L1942.51 580.941L1953.81 567.102L1962.94 569.483L1948.8 586.961L1953.3 610.29ZM1995.46 577.959L2010.4 581.853L1999.83 622.418L1991 620.118L1999.66 586.907L1998.73 586.665L1976.14 616.244L1961.2 612.35L1971.77 571.785L1980.6 574.085L1971.94 607.296L1972.79 607.518L1995.46 577.959Z" fill="#101010"/>
</g>
<g clip-path="url(#clip3_4674_8257)">
<rect width="947" height="144" transform="translate(718 402.426) rotate(-20.8738)" fill="#00DD00"/>
<path d="M825.335 400.324C834.405 396.865 841.918 396.511 847.876 399.262C853.815 401.963 858.542 407.924 862.058 417.143C865.612 426.461 866.091 434.155 863.497 440.225C860.884 446.244 855.042 450.984 845.973 454.442C837.401 457.711 830.222 458.194 824.435 455.891C818.648 453.589 813.953 448.387 810.35 440.286L801.829 443.535L810.637 466.633L801.966 469.939L782.184 418.063L790.855 414.757L798.865 435.761L807.535 432.455C805.295 424.633 805.633 418.111 808.551 412.889C811.468 407.667 817.063 403.478 825.335 400.324ZM853.387 420.449C850.689 413.373 847.437 408.962 843.632 407.217C839.839 405.352 834.728 405.646 828.3 408.098C821.871 410.549 817.838 413.742 816.199 417.678C814.591 421.545 815.127 426.991 817.806 434.018C820.524 441.144 823.804 445.629 827.647 447.474C831.559 449.35 836.679 449.082 843.008 446.668C849.387 444.236 853.376 441.002 854.977 436.967C856.578 432.932 856.048 427.426 853.387 420.449ZM901.996 407.735L902.281 408.482C907.168 408.274 910.495 410.487 912.262 415.122C915.093 422.547 911.6 428.131 901.783 431.875L881.227 439.714L866.291 400.545L886.996 392.649C895.966 389.229 901.696 390.783 904.185 397.311C904.984 399.404 905.206 401.259 904.853 402.878C904.531 404.428 903.578 406.047 901.996 407.735ZM877.52 404.397L880.627 412.544L892.438 408.041C894.381 407.3 895.637 406.478 896.207 405.576C896.776 404.674 896.776 403.475 896.206 401.98C895.16 399.24 892.744 398.591 888.957 400.036L877.52 404.397ZM883.335 419.646L887.041 429.363L898.926 424.831C903.162 423.216 904.691 420.863 903.512 417.773C902.809 415.93 901.817 414.824 900.535 414.457C899.234 414.039 897.463 414.258 895.22 415.113L883.335 419.646ZM954.174 389.635L955.058 391.953L924.56 403.583C926.367 407.574 928.457 410.059 930.828 411.039C933.199 412.018 936.378 411.748 940.365 410.227C946.544 407.871 949.27 404.691 948.542 400.687L956.541 397.637C957.788 401.956 957.26 405.811 954.957 409.201C952.634 412.541 948.633 415.294 942.952 417.46C936.125 420.064 930.48 420.304 926.017 418.181C921.536 416.009 917.927 411.335 915.19 404.159C912.492 397.083 912.085 391.301 913.97 386.815C915.837 382.279 920.134 378.729 926.861 376.163C933.688 373.56 939.239 373.298 943.514 375.378C947.789 377.458 951.343 382.21 954.174 389.635ZM929.672 383.311C926.134 384.66 923.774 386.33 922.593 388.322C921.412 390.313 921.215 393.014 922.001 396.424L943.679 388.158C942.282 385.095 940.496 383.179 938.319 382.41C936.143 381.642 933.26 381.942 929.672 383.311ZM957.905 365.609L988.328 354.008L1003.26 393.176L994.743 396.426L982.514 364.358L969.134 369.461L972.355 377.907C975.567 386.329 976.622 393.062 975.52 398.106C974.468 403.13 971.176 406.697 965.645 408.807L962.937 401.705C965.502 400.499 966.85 398.272 966.982 395.026C967.145 391.71 966.095 387.087 963.834 381.157L957.905 365.609ZM1021.95 341.188L1036.37 335.686L1051.31 374.855L1042.79 378.104L1030.56 346.037L1029.66 346.379L1028.44 383.577L1014.01 389.079L999.073 349.91L1007.59 346.661L1019.82 378.728L1020.65 378.414L1021.95 341.188ZM1069.63 321.721C1075.61 319.441 1080.62 319.413 1084.66 321.638C1088.76 323.844 1092.14 328.46 1094.82 335.486C1097.58 342.712 1098.21 348.551 1096.71 353.004C1095.21 357.457 1091.45 360.833 1085.42 363.132C1078.39 365.812 1072.6 365.079 1068.06 360.935L1076.83 383.957L1068.31 387.207L1047.11 331.593L1055.63 328.344L1058.11 334.847C1058.76 328.776 1062.6 324.401 1069.63 321.721ZM1080.62 356.829C1084.6 355.309 1087.02 353.189 1087.87 350.469C1088.74 347.68 1088.24 343.819 1086.36 338.885C1084.48 333.952 1082.34 330.802 1079.93 329.436C1077.56 328.001 1074.4 328.034 1070.47 329.535C1061.84 332.823 1059.05 338.453 1062.09 346.426L1063.21 349.342C1064.71 353.278 1066.94 355.91 1069.9 357.235C1072.91 358.542 1076.48 358.407 1080.62 356.829ZM1127.51 318.313L1121.72 303.139L1130.24 299.89L1145.18 339.058L1136.66 342.308L1130.22 325.414L1113.25 331.885L1119.69 348.778L1111.17 352.028L1096.23 312.859L1104.75 309.61L1110.54 324.784L1127.51 318.313ZM1155.92 334.964L1140.98 295.795L1149.5 292.546L1154.66 306.075L1163.71 302.626C1168.99 300.612 1173.3 300.167 1176.64 301.291C1179.96 302.365 1182.44 305.044 1184.07 309.33C1185.76 313.765 1185.75 317.539 1184.02 320.651C1182.28 323.713 1178.77 326.251 1173.48 328.265L1155.92 334.964ZM1203.31 316.892L1194.79 320.142L1179.85 280.973L1188.37 277.723L1203.31 316.892ZM1166.41 309.728L1157.37 313.177L1161.73 324.613L1170.77 321.164C1173.27 320.214 1174.89 319.081 1175.64 317.766C1176.4 316.451 1176.38 314.747 1175.58 312.654C1174.82 310.661 1173.73 309.45 1172.31 309.021C1170.87 308.542 1168.91 308.777 1166.41 309.728ZM1243.32 279.374L1244.2 281.691L1213.7 293.321C1215.51 297.312 1217.6 299.798 1219.97 300.777C1222.34 301.757 1225.52 301.486 1229.51 299.966C1235.69 297.609 1238.41 294.429 1237.69 290.426L1245.68 287.376C1246.93 291.695 1246.4 295.549 1244.1 298.939C1241.78 302.279 1237.78 305.032 1232.09 307.199C1225.27 309.802 1219.62 310.043 1215.16 307.92C1210.68 305.748 1207.07 301.073 1204.33 293.897C1201.63 286.821 1201.23 281.04 1203.11 276.554C1204.98 272.018 1209.28 268.467 1216 265.902C1222.83 263.298 1228.38 263.036 1232.66 265.116C1236.93 267.196 1240.49 271.949 1243.32 279.374ZM1218.82 273.049C1215.28 274.398 1212.92 276.069 1211.74 278.06C1210.55 280.052 1210.36 282.753 1211.14 286.163L1232.82 277.897C1231.43 274.833 1229.64 272.917 1227.46 272.149C1225.29 271.381 1222.4 271.681 1218.82 273.049ZM1286.85 240.168L1301.28 234.667L1316.22 273.835L1307.7 277.085L1295.47 245.017L1294.57 245.359L1293.34 282.558L1278.92 288.059L1263.98 248.89L1272.5 245.641L1284.73 277.708L1285.55 277.395L1286.85 240.168ZM1345.95 238.522L1346.3 239.419C1351.55 239.128 1355.11 241.424 1356.97 246.308C1359.92 254.032 1355.26 260.231 1343 264.906C1336.82 267.263 1331.79 267.924 1327.92 266.891C1324.04 265.857 1321.1 263.155 1319.09 258.784L1327.24 255.677C1329.29 259.573 1333.64 260.258 1340.26 257.73C1346.89 255.203 1349.52 252.145 1348.15 248.557C1347.45 246.713 1346.16 245.662 1344.3 245.404C1342.43 245.146 1339.8 245.663 1336.41 246.956L1327.82 250.234L1325.11 243.132L1333.7 239.854C1336.84 238.657 1338.97 237.419 1340.08 236.139C1341.19 234.86 1341.41 233.348 1340.75 231.604C1339.62 228.663 1336.1 228.324 1330.17 230.586C1323.89 232.98 1321.34 236.178 1322.53 240.179L1314.3 243.314C1312.86 238.784 1313.21 234.912 1315.35 231.698C1317.48 228.434 1321.58 225.642 1327.66 223.324C1339.07 218.972 1346.15 220.409 1348.91 227.635C1350.45 231.672 1349.46 235.301 1345.95 238.522ZM1388.44 201.428L1400.67 233.496L1404.56 232.014L1412.03 251.598L1403.51 254.847L1398.74 242.364L1373.18 252.113L1377.94 264.596L1369.42 267.846L1361.95 248.261L1365.76 246.808C1367.79 242.839 1366.96 236.02 1363.27 226.353L1358.17 212.973L1388.44 201.428ZM1374.66 243.415L1392.15 236.745L1382.63 211.779L1369.4 216.824L1372.33 224.524C1374.9 231.251 1375.67 237.548 1374.66 243.415ZM1444.13 202.795L1445.02 205.112L1414.52 216.742C1416.33 220.733 1418.42 223.219 1420.79 224.198C1423.16 225.178 1426.34 224.907 1430.32 223.387C1436.5 221.03 1439.23 217.85 1438.5 213.847L1446.5 210.797C1447.75 215.116 1447.22 218.97 1444.92 222.36C1442.59 225.7 1438.59 228.453 1432.91 230.62C1426.08 233.223 1420.44 233.464 1415.98 231.341C1411.49 229.169 1407.89 224.494 1405.15 217.319C1402.45 210.242 1402.04 204.461 1403.93 199.975C1405.8 195.439 1410.09 191.888 1416.82 189.323C1423.65 186.719 1429.2 186.457 1433.47 188.537C1437.75 190.617 1441.3 195.37 1444.13 202.795ZM1419.63 196.47C1416.09 197.819 1413.73 199.49 1412.55 201.481C1411.37 203.473 1411.17 206.174 1411.96 209.584L1433.64 201.318C1432.24 198.254 1430.45 196.338 1428.28 195.57C1426.1 194.802 1423.22 195.102 1419.63 196.47ZM1447.86 178.769L1478.29 167.167L1493.22 206.336L1484.7 209.585L1472.47 177.518L1459.09 182.62L1462.31 191.067C1465.53 199.489 1466.58 206.221 1465.48 211.265C1464.43 216.29 1461.14 219.857 1455.6 221.966L1452.9 214.865C1455.46 213.658 1456.81 211.432 1456.94 208.185C1457.1 204.87 1456.05 200.247 1453.79 194.317L1447.86 178.769ZM1511.91 154.347L1526.33 148.846L1541.27 188.014L1532.75 191.264L1520.52 159.196L1519.62 159.539L1518.4 196.737L1503.97 202.238L1489.03 163.07L1497.55 159.82L1509.78 191.888L1510.6 191.574L1511.91 154.347ZM1551.49 139.252L1570.4 132.04L1585.34 171.209L1576.82 174.458L1572.17 162.274L1568.06 163.842L1559.1 181.214L1548.11 185.404L1557.33 167.59C1549.05 169.378 1543.43 166.385 1540.47 158.611C1538.81 154.275 1538.93 150.464 1540.81 147.176C1542.7 143.888 1546.26 141.247 1551.49 139.252ZM1559.07 159.135L1569.46 155.173L1564.59 142.391L1554.2 146.353C1549.17 148.272 1547.43 151.275 1548.99 155.361C1550.68 159.796 1554.04 161.054 1559.07 159.135Z" fill="#101010"/>
</g>
<rect width="348" height="144" transform="translate(980.635) rotate(4.23514)" fill="#DDDDDD"/>
<path d="M1037.27 97.4488L1028.02 96.7635L1032.12 41.3951L1064.99 43.8292L1064.37 52.1264L1040.76 50.3777L1039.46 67.9296L1061.72 69.5779L1061.1 77.8752L1038.84 76.2269L1037.27 97.4488ZM1124.91 48.2667L1142.47 49.5665L1138.36 104.935L1129.11 104.25L1132.6 57.1784L1130.6 57.0307L1110.04 102.838L1099.19 102.034L1085.6 53.6986L1083.61 53.5509L1080.12 100.622L1070.87 99.9367L1074.97 44.5683L1092.52 45.8681L1105.3 93.1811L1124.91 48.2667ZM1176.24 108.943C1166.77 108.242 1159.98 105.386 1155.86 100.374C1151.79 95.3137 1150.13 87.7571 1150.88 77.7046C1151.6 67.9181 1154.37 60.8766 1159.18 56.5801C1164.05 52.2876 1171.32 50.4997 1181 51.2166C1197.49 52.4375 1205.73 59.8935 1205.73 73.5844L1196.64 72.9108C1196.53 68.6243 1195.16 65.4213 1192.54 63.3017C1189.97 61.1861 1185.91 59.9235 1180.38 59.5138C1173.47 59.0018 1168.52 60.1592 1165.53 62.9861C1162.48 65.8623 1160.68 71.0235 1160.13 78.4698C1159.56 86.1288 1160.55 91.6031 1163.08 94.8928C1165.67 98.2397 1170.31 100.161 1177.02 100.657C1188.4 101.5 1194.75 97.3713 1196.06 88.2703L1205.32 88.9556C1204.25 96.0965 1201.24 101.382 1196.28 104.812C1191.32 108.188 1184.64 109.565 1176.24 108.943ZM1240.36 92.5133L1240.97 84.216L1269.62 86.337L1269.5 87.8528C1268.79 97.4266 1265.99 104.305 1261.08 108.487C1256.23 112.62 1249.09 114.338 1239.68 113.641C1230.1 112.932 1223.18 110.039 1218.9 104.963C1214.63 99.833 1212.86 92.3218 1213.59 82.4289C1214.31 72.7487 1217.15 65.7397 1222.13 61.4019C1227.11 57.0108 1234.3 55.1639 1243.72 55.861C1251.8 56.4597 1257.88 58.5142 1261.95 62.0245C1266.08 65.4855 1268.41 70.4979 1268.94 77.0616L1260.24 76.4177C1259.62 72.5212 1257.99 69.6196 1255.35 67.7127C1252.72 65.7527 1248.74 64.5758 1243.42 64.1819C1236.77 63.6896 1231.82 64.8736 1228.56 67.734C1225.3 70.5944 1223.39 75.7211 1222.85 83.1142C1222.29 90.6669 1223.33 96.1452 1225.96 99.5491C1228.71 102.908 1233.51 104.841 1240.37 105.349C1246.28 105.786 1250.79 105.105 1253.92 103.304C1257.05 101.45 1258.94 98.328 1259.59 93.9371L1240.36 92.5133Z" fill="#101010"/>
<g clip-path="url(#clip4_4674_8257)">
<rect width="415" height="144" transform="translate(0 596.821) rotate(-54.2543)" fill="#DDDDDD"/>
<path d="M83.2449 592.571C75.237 586.807 70.6898 580.709 69.6034 574.275C68.4736 567.811 70.744 560.64 76.4146 552.762C82.0851 544.884 88.1647 540.454 94.6534 539.473C101.099 538.461 108.325 540.837 116.333 546.601C124.428 552.428 129.062 558.589 130.235 565.084C131.364 571.549 129.094 578.72 123.423 586.598C117.753 594.476 111.673 598.905 105.185 599.886C98.6527 600.836 91.3395 598.398 83.2449 592.571ZM110.912 554.133C104.765 549.709 99.6233 547.815 95.4857 548.451C91.2926 548.981 87.1864 552.038 83.1672 557.622C79.148 563.206 77.5369 568.092 78.3339 572.28C79.1187 576.393 82.5628 580.646 88.6662 585.04C94.8562 589.495 100.063 591.436 104.287 590.862C108.586 590.276 112.714 587.235 116.671 581.737C120.659 576.197 122.211 571.301 121.328 567.051C120.444 562.801 116.972 558.495 110.912 554.133ZM131.238 501.93L159.092 521.979L161.523 518.603L178.534 530.847L173.206 538.249L162.363 530.445L146.38 552.65L157.223 560.455L151.895 567.857L134.884 555.613L137.267 552.301C136.775 547.873 132.33 542.636 123.932 536.592L112.31 528.226L131.238 501.93ZM142.829 544.575L153.765 529.381L132.078 513.772L123.806 525.264L130.494 530.078C136.337 534.284 140.449 539.116 142.829 544.575ZM178.493 472.43L180.506 473.879L161.438 500.37C165.143 502.709 168.255 503.635 170.774 503.148C173.293 502.661 175.799 500.686 178.291 497.223C182.155 491.856 182.681 487.701 179.871 484.758L184.872 477.81C188.29 480.73 189.969 484.24 189.911 488.337C189.81 492.404 187.983 496.905 184.431 501.84C180.163 507.77 175.581 511.076 170.687 511.759C165.749 512.411 160.164 510.493 153.931 506.007C147.784 501.583 144.264 496.979 143.37 492.195C142.433 487.381 144.067 482.052 148.273 476.208C152.542 470.278 157.033 467.005 161.747 466.39C166.461 465.775 172.043 467.788 178.493 472.43ZM154.553 480.63C152.341 483.703 151.29 486.396 151.399 488.709C151.508 491.022 152.83 493.386 155.363 495.801L168.916 476.971C166.064 475.181 163.519 474.565 161.278 475.121C159.038 475.677 156.796 477.513 154.553 480.63ZM232.006 433.689L226.445 441.415L206.63 437.995L202.985 443.06L217.659 453.622L212.331 461.024L197.657 450.462L193.918 455.656L203.545 473.231L197.983 480.957L186.499 460.074L164.521 455.689L170.036 448.027L187.563 451.476L191.489 446.022L178.308 436.535L183.636 429.133L196.816 438.62L200.742 433.166L191.908 417.64L197.423 409.979L208.623 429.474L232.006 433.689ZM224.662 372.134L252.517 392.184L254.947 388.807L271.959 401.052L266.631 408.454L255.788 400.649L239.804 422.855L250.647 430.66L245.32 438.062L228.308 425.817L230.692 422.506C230.199 418.077 225.754 412.841 217.357 406.796L205.734 398.431L224.662 372.134ZM236.253 414.779L247.189 399.586L225.503 383.976L217.231 395.469L223.918 400.282C229.762 404.488 233.874 409.321 236.253 414.779ZM240.897 347.526C244.417 342.634 248.085 339.82 251.901 339.084C255.748 338.304 259.965 339.566 264.554 342.868L286.175 358.431L281.081 365.509L275.627 361.583C278.479 366.658 278.083 371.729 274.437 376.793C268.58 384.931 262.123 386.461 255.068 381.382C247.666 376.054 247.376 368.65 254.2 359.171C256.536 355.924 259.047 353.395 261.732 351.582L259.46 349.946C256.992 348.17 254.775 347.461 252.809 347.82C250.799 348.147 248.906 349.545 247.13 352.012C245.416 354.393 244.495 356.358 244.365 357.907C244.192 359.426 244.86 360.826 246.368 362.109L241.367 369.056C234.604 363.663 234.447 356.486 240.897 347.526ZM269.866 370.546C271.704 367.992 272.513 365.453 272.293 362.928C272.073 360.404 270.89 358.304 268.745 356.629L267.641 355.834C264.987 357.604 262.601 359.961 260.482 362.904C256.899 367.882 256.839 371.617 260.302 374.11C263.375 376.322 266.563 375.134 269.866 370.546Z" fill="#101010"/>
</g>
<rect width="656" height="144" transform="translate(46 112)" fill="#00DD00"/>
<path d="M100.4 149.48H141.12V205H131.84V157.8H109.68V205H100.4V149.48ZM177.836 161.88C184.236 161.88 188.929 163.64 191.916 167.16C194.956 170.68 196.476 176.2 196.476 183.72C196.476 191.453 194.982 197.133 191.996 200.76C189.009 204.387 184.289 206.2 177.836 206.2C170.316 206.2 165.169 203.453 162.396 197.96V222.6H153.276V163.08H162.396V170.04C165.169 164.6 170.316 161.88 177.836 161.88ZM175.596 198.6C179.862 198.6 182.876 197.48 184.636 195.24C186.449 192.947 187.356 189.16 187.356 183.88C187.356 178.6 186.476 174.893 184.716 172.76C183.009 170.573 180.049 169.48 175.836 169.48C166.609 169.48 161.996 173.747 161.996 182.28V185.4C161.996 189.613 163.142 192.867 165.436 195.16C167.782 197.453 171.169 198.6 175.596 198.6ZM225.374 206.2C217.854 206.2 212.36 204.413 208.894 200.84C205.427 197.267 203.694 191.64 203.694 183.96C203.694 176.387 205.427 170.813 208.894 167.24C212.36 163.667 217.854 161.88 225.374 161.88C232.734 161.88 238.147 163.693 241.614 167.32C245.134 170.893 246.894 176.44 246.894 183.96C246.894 191.64 245.16 197.267 241.694 200.84C238.227 204.413 232.787 206.2 225.374 206.2ZM225.374 198.52C229.96 198.52 233.16 197.427 234.974 195.24C236.84 193.053 237.774 189.293 237.774 183.96C237.774 178.68 236.84 174.973 234.974 172.84C233.16 170.653 229.96 169.56 225.374 169.56C220.787 169.56 217.534 170.653 215.614 172.84C213.747 175.027 212.814 178.733 212.814 183.96C212.814 189.293 213.747 193.053 215.614 195.24C217.48 197.427 220.734 198.52 225.374 198.52ZM293.444 163.08H310.564V205H301.444L301.364 170.68H300.004L288.244 205H278.484L267.044 170.68H265.364V205H256.244V163.08H273.524L283.284 195.16L293.444 163.08ZM341.624 206.2C334.104 206.2 328.61 204.413 325.144 200.84C321.677 197.267 319.944 191.64 319.944 183.96C319.944 176.387 321.677 170.813 325.144 167.24C328.61 163.667 334.104 161.88 341.624 161.88C348.984 161.88 354.397 163.693 357.864 167.32C361.384 170.893 363.144 176.44 363.144 183.96C363.144 191.64 361.41 197.267 357.944 200.84C354.477 204.413 349.037 206.2 341.624 206.2ZM341.624 198.52C346.21 198.52 349.41 197.427 351.224 195.24C353.09 193.053 354.024 189.293 354.024 183.96C354.024 178.68 353.09 174.973 351.224 172.84C349.41 170.653 346.21 169.56 341.624 169.56C337.037 169.56 333.784 170.653 331.864 172.84C329.997 175.027 329.064 178.733 329.064 183.96C329.064 189.293 329.997 193.053 331.864 195.24C333.73 197.427 336.984 198.52 341.624 198.52ZM400.654 187.8H373.134V180.28H400.654V187.8ZM432.007 206.2C424.647 206.2 419.234 204.413 415.767 200.84C412.354 197.267 410.647 191.64 410.647 183.96C410.647 176.333 412.354 170.76 415.767 167.24C419.18 163.667 424.594 161.88 432.007 161.88C438.087 161.88 442.86 163.267 446.327 166.04C449.794 168.76 451.714 172.733 452.087 177.96H443.207C442.727 172.36 439.02 169.56 432.087 169.56C427.607 169.56 424.434 170.68 422.567 172.92C420.7 175.107 419.767 178.813 419.767 184.04C419.767 189.373 420.674 193.133 422.487 195.32C424.3 197.453 427.5 198.52 432.087 198.52C439.02 198.52 442.78 195.453 443.367 189.32H452.247C451.874 194.76 449.927 198.947 446.407 201.88C442.94 204.76 438.14 206.2 432.007 206.2ZM478.203 161.88C484.229 161.88 488.656 163.213 491.483 165.88C494.363 168.547 495.803 172.707 495.803 178.36V205H487.083V198.28C484.629 203.56 480.283 206.2 474.043 206.2C464.016 206.2 459.003 201.853 459.003 193.16C459.003 184.04 464.843 179.48 476.523 179.48C480.523 179.48 484.043 180.04 487.083 181.16V178.36C487.083 175.32 486.363 173.107 484.923 171.72C483.483 170.28 481.243 169.56 478.203 169.56C475.269 169.56 473.136 169.96 471.803 170.76C470.469 171.507 469.723 172.867 469.563 174.84H461.003C461.429 166.2 467.163 161.88 478.203 161.88ZM476.443 198.84C479.589 198.84 482.123 198.013 484.043 196.36C485.963 194.707 486.976 192.52 487.083 189.8V188.44C484.096 187.32 480.789 186.76 477.163 186.76C471.029 186.76 467.963 188.893 467.963 193.16C467.963 196.947 470.789 198.84 476.443 198.84ZM526.944 156.52C522.357 156.52 518.97 155.533 516.784 153.56C514.597 151.533 513.504 148.413 513.504 144.2H520.304C520.304 146.387 520.837 147.96 521.904 148.92C522.97 149.88 524.65 150.36 526.944 150.36C529.237 150.36 530.89 149.88 531.904 148.92C532.97 147.96 533.504 146.387 533.504 144.2H540.384C540.384 148.467 539.29 151.587 537.104 153.56C534.97 155.533 531.584 156.52 526.944 156.52ZM531.584 163.08H547.024V205H537.904V170.68H536.944L522.544 205H507.104V163.08H516.224V197.4H517.104L531.584 163.08ZM576.83 205H567.71V170.68H554.67V163.08H589.87V170.68H576.83V205ZM597.573 205V163.08H606.693V177.56H616.373C622.026 177.56 626.213 178.68 628.933 180.92C631.653 183.107 633.013 186.493 633.013 191.08C633.013 195.827 631.653 199.347 628.933 201.64C626.213 203.88 622.026 205 616.373 205H597.573ZM648.293 205H639.173V163.08H648.293V205ZM616.373 185.16H606.693V197.4H616.373C619.039 197.4 620.959 196.92 622.133 195.96C623.306 195 623.893 193.4 623.893 191.16C623.893 189.027 623.306 187.507 622.133 186.6C620.959 185.64 619.039 185.16 616.373 185.16Z" fill="#101010"/>
<rect width="1287" height="144" transform="translate(216 555)" fill="#00DD00"/>
<path d="M312.8 592.48V639.68H317.12V661.44H307.76V648H274.48V661.44H265.12V639.68H269.6C273.653 634.347 275.68 625.947 275.68 614.48V592.48H312.8ZM285.04 600.8V614.48C285.04 624.24 283.28 632.64 279.76 639.68H303.44V600.8H285.04ZM350.099 606.08H365.539V648H356.419V613.68H355.459L341.059 648H325.619V606.08H334.739V640.4H335.619L350.099 606.08ZM396.226 649.2C388.866 649.2 383.452 647.413 379.986 643.84C376.572 640.267 374.866 634.64 374.866 626.96C374.866 619.333 376.572 613.76 379.986 610.24C383.399 606.667 388.812 604.88 396.226 604.88C402.306 604.88 407.079 606.267 410.546 609.04C414.012 611.76 415.932 615.733 416.306 620.96H407.426C406.946 615.36 403.239 612.56 396.306 612.56C391.826 612.56 388.652 613.68 386.786 615.92C384.919 618.107 383.986 621.813 383.986 627.04C383.986 632.373 384.892 636.133 386.706 638.32C388.519 640.453 391.719 641.52 396.306 641.52C403.239 641.52 406.999 638.453 407.586 632.32H416.466C416.092 637.76 414.146 641.947 410.626 644.88C407.159 647.76 402.359 649.2 396.226 649.2ZM443.393 648H434.273V613.68H421.233V606.08H456.433V613.68H443.393V648ZM480.234 604.88C486.26 604.88 490.687 606.213 493.514 608.88C496.394 611.547 497.834 615.707 497.834 621.36V648H489.114V641.28C486.66 646.56 482.314 649.2 476.074 649.2C466.047 649.2 461.034 644.853 461.034 636.16C461.034 627.04 466.874 622.48 478.554 622.48C482.554 622.48 486.074 623.04 489.114 624.16V621.36C489.114 618.32 488.394 616.107 486.954 614.72C485.514 613.28 483.274 612.56 480.234 612.56C477.3 612.56 475.167 612.96 473.834 613.76C472.5 614.507 471.754 615.867 471.594 617.84H463.034C463.46 609.2 469.194 604.88 480.234 604.88ZM478.474 641.84C481.62 641.84 484.154 641.013 486.074 639.36C487.994 637.707 489.007 635.52 489.114 632.8V631.44C486.127 630.32 482.82 629.76 479.194 629.76C473.06 629.76 469.994 631.893 469.994 636.16C469.994 639.947 472.82 641.84 478.474 641.84ZM536.415 622.32V606.08H545.535V648H536.415V629.92H518.255V648H509.135V606.08H518.255V622.32H536.415ZM593.106 606.08V640.4H597.266V661.36H588.146V648H557.026V606.08H566.146V640.4H583.986V606.08H593.106ZM630.178 606.08H645.618V648H636.498V613.68H635.538L621.138 648H605.698V606.08H614.818V640.4H615.698L630.178 606.08ZM676.624 649.2C669.104 649.2 663.61 647.413 660.144 643.84C656.677 640.267 654.944 634.64 654.944 626.96C654.944 619.387 656.677 613.813 660.144 610.24C663.61 606.667 669.104 604.88 676.624 604.88C683.984 604.88 689.397 606.693 692.864 610.32C696.384 613.893 698.144 619.44 698.144 626.96C698.144 634.64 696.41 640.267 692.944 643.84C689.477 647.413 684.037 649.2 676.624 649.2ZM676.624 641.52C681.21 641.52 684.41 640.427 686.224 638.24C688.09 636.053 689.024 632.293 689.024 626.96C689.024 621.68 688.09 617.973 686.224 615.84C684.41 613.653 681.21 612.56 676.624 612.56C672.037 612.56 668.784 613.653 666.864 615.84C664.997 618.027 664.064 621.733 664.064 626.96C664.064 632.293 664.997 636.053 666.864 638.24C668.73 640.427 671.984 641.52 676.624 641.52ZM734.774 622.32V606.08H743.894V648H734.774V629.92H716.614V648H707.494V606.08H716.614V622.32H734.774ZM782.665 622.32V606.08H791.785V648H782.665V629.92H764.505V648H755.385V606.08H764.505V622.32H782.665ZM822.796 649.2C815.276 649.2 809.782 647.413 806.316 643.84C802.849 640.267 801.116 634.64 801.116 626.96C801.116 619.387 802.849 613.813 806.316 610.24C809.782 606.667 815.276 604.88 822.796 604.88C830.156 604.88 835.569 606.693 839.036 610.32C842.556 613.893 844.316 619.44 844.316 626.96C844.316 634.64 842.582 640.267 839.116 643.84C835.649 647.413 830.209 649.2 822.796 649.2ZM822.796 641.52C827.382 641.52 830.582 640.427 832.396 638.24C834.262 636.053 835.196 632.293 835.196 626.96C835.196 621.68 834.262 617.973 832.396 615.84C830.582 613.653 827.382 612.56 822.796 612.56C818.209 612.56 814.956 613.653 813.036 615.84C811.169 618.027 810.236 621.733 810.236 626.96C810.236 632.293 811.169 636.053 813.036 638.24C814.902 640.427 818.156 641.52 822.796 641.52ZM893.106 627.2V629.68H860.466C860.733 634.053 861.8 637.12 863.666 638.88C865.533 640.64 868.6 641.52 872.866 641.52C879.48 641.52 883.16 639.52 883.906 635.52H892.466C892.093 640 890.226 643.413 886.866 645.76C883.506 648.053 878.786 649.2 872.706 649.2C865.4 649.2 860.04 647.413 856.626 643.84C853.213 640.213 851.506 634.56 851.506 626.88C851.506 619.307 853.186 613.76 856.546 610.24C859.906 606.667 865.186 604.88 872.386 604.88C879.693 604.88 884.973 606.613 888.226 610.08C891.48 613.547 893.106 619.253 893.106 627.2ZM872.466 612.56C868.68 612.56 865.88 613.28 864.066 614.72C862.253 616.16 861.106 618.613 860.626 622.08H883.826C883.613 618.72 882.626 616.293 880.866 614.8C879.106 613.307 876.306 612.56 872.466 612.56ZM942.796 649.2C935.276 649.2 929.782 647.413 926.316 643.84C922.849 640.267 921.116 634.64 921.116 626.96C921.116 619.387 922.849 613.813 926.316 610.24C929.782 606.667 935.276 604.88 942.796 604.88C950.156 604.88 955.569 606.693 959.036 610.32C962.556 613.893 964.316 619.44 964.316 626.96C964.316 634.64 962.582 640.267 959.116 643.84C955.649 647.413 950.209 649.2 942.796 649.2ZM942.796 641.52C947.382 641.52 950.582 640.427 952.396 638.24C954.262 636.053 955.196 632.293 955.196 626.96C955.196 621.68 954.262 617.973 952.396 615.84C950.582 613.653 947.382 612.56 942.796 612.56C938.209 612.56 934.956 613.653 933.036 615.84C931.169 618.027 930.236 621.733 930.236 626.96C930.236 632.293 931.169 636.053 933.036 638.24C934.902 640.427 938.156 641.52 942.796 641.52ZM998.306 604.88C1004.49 604.88 1009.03 606.667 1011.91 610.24C1014.79 613.76 1016.23 619.307 1016.23 626.88C1016.23 634.507 1014.49 640.133 1011.03 643.76C1007.56 647.387 1002.17 649.2 994.866 649.2C987.4 649.2 981.96 647.413 978.546 643.84C975.133 640.213 973.426 634.533 973.426 626.8V619.92C973.426 610.587 975.346 603.467 979.186 598.56C983.08 593.653 989.746 590.32 999.186 588.56L1013.67 586V593.76L999.586 596.32C993.88 597.387 989.746 599.2 987.186 601.76C984.626 604.267 982.973 607.92 982.226 612.72C983.613 610.213 985.72 608.293 988.546 606.96C991.373 605.573 994.626 604.88 998.306 604.88ZM1007.11 626.8C1007.11 621.573 1006.25 617.893 1004.55 615.76C1002.84 613.573 999.986 612.48 995.986 612.48C991.346 612.48 987.96 613.627 985.826 615.92C983.693 618.16 982.6 621.867 982.546 627.04C982.493 632.267 983.426 636 985.346 638.24C987.32 640.427 990.493 641.52 994.866 641.52C999.293 641.52 1002.44 640.427 1004.31 638.24C1006.17 636 1007.11 632.187 1007.11 626.8ZM1050.18 604.88C1056.58 604.88 1061.27 606.64 1064.26 610.16C1067.3 613.68 1068.82 619.2 1068.82 626.72C1068.82 634.453 1067.33 640.133 1064.34 643.76C1061.35 647.387 1056.63 649.2 1050.18 649.2C1042.66 649.2 1037.51 646.453 1034.74 640.96V665.6H1025.62V606.08H1034.74V613.04C1037.51 607.6 1042.66 604.88 1050.18 604.88ZM1047.94 641.6C1052.21 641.6 1055.22 640.48 1056.98 638.24C1058.79 635.947 1059.7 632.16 1059.7 626.88C1059.7 621.6 1058.82 617.893 1057.06 615.76C1055.35 613.573 1052.39 612.48 1048.18 612.48C1038.95 612.48 1034.34 616.747 1034.34 625.28V628.4C1034.34 632.613 1035.49 635.867 1037.78 638.16C1040.13 640.453 1043.51 641.6 1047.94 641.6ZM1095.08 604.88C1101.1 604.88 1105.53 606.213 1108.36 608.88C1111.24 611.547 1112.68 615.707 1112.68 621.36V648H1103.96V641.28C1101.5 646.56 1097.16 649.2 1090.92 649.2C1080.89 649.2 1075.88 644.853 1075.88 636.16C1075.88 627.04 1081.72 622.48 1093.4 622.48C1097.4 622.48 1100.92 623.04 1103.96 624.16V621.36C1103.96 618.32 1103.24 616.107 1101.8 614.72C1100.36 613.28 1098.12 612.56 1095.08 612.56C1092.14 612.56 1090.01 612.96 1088.68 613.76C1087.34 614.507 1086.6 615.867 1086.44 617.84H1077.88C1078.3 609.2 1084.04 604.88 1095.08 604.88ZM1093.32 641.84C1096.46 641.84 1099 641.013 1100.92 639.36C1102.84 637.707 1103.85 635.52 1103.96 632.8V631.44C1100.97 630.32 1097.66 629.76 1094.04 629.76C1087.9 629.76 1084.84 631.893 1084.84 636.16C1084.84 639.947 1087.66 641.84 1093.32 641.84ZM1152.86 625.6V626.56C1157.87 628.16 1160.38 631.573 1160.38 636.8C1160.38 645.067 1153.82 649.2 1140.7 649.2C1134.09 649.2 1129.15 648.027 1125.9 645.68C1122.65 643.333 1120.86 639.76 1120.54 634.96H1129.26C1129.79 639.333 1133.61 641.52 1140.7 641.52C1147.79 641.52 1151.34 639.6 1151.34 635.76C1151.34 633.787 1150.51 632.347 1148.86 631.44C1147.21 630.533 1144.57 630.08 1140.94 630.08H1131.74V622.48H1140.94C1144.3 622.48 1146.73 622.08 1148.22 621.28C1149.71 620.48 1150.46 619.147 1150.46 617.28C1150.46 614.133 1147.29 612.56 1140.94 612.56C1134.22 612.56 1130.7 614.64 1130.38 618.8H1121.58C1121.85 614.053 1123.55 610.56 1126.7 608.32C1129.85 606.027 1134.67 604.88 1141.18 604.88C1153.39 604.88 1159.5 608.747 1159.5 616.48C1159.5 620.8 1157.29 623.84 1152.86 625.6ZM1188.58 649.2C1181.06 649.2 1175.56 647.413 1172.1 643.84C1168.63 640.267 1166.9 634.64 1166.9 626.96C1166.9 619.387 1168.63 613.813 1172.1 610.24C1175.56 606.667 1181.06 604.88 1188.58 604.88C1195.94 604.88 1201.35 606.693 1204.82 610.32C1208.34 613.893 1210.1 619.44 1210.1 626.96C1210.1 634.64 1208.36 640.267 1204.9 643.84C1201.43 647.413 1195.99 649.2 1188.58 649.2ZM1188.58 641.52C1193.16 641.52 1196.36 640.427 1198.18 638.24C1200.04 636.053 1200.98 632.293 1200.98 626.96C1200.98 621.68 1200.04 617.973 1198.18 615.84C1196.36 613.653 1193.16 612.56 1188.58 612.56C1183.99 612.56 1180.74 613.653 1178.82 615.84C1176.95 618.027 1176.02 621.733 1176.02 626.96C1176.02 632.293 1176.95 636.053 1178.82 638.24C1180.68 640.427 1183.94 641.52 1188.58 641.52ZM1250.25 625.52V626.32C1254.89 627.867 1257.21 631.12 1257.21 636.08C1257.21 644.027 1251.95 648 1241.45 648H1219.45V606.08H1241.61C1251.21 606.08 1256.01 609.573 1256.01 616.56C1256.01 618.8 1255.55 620.613 1254.65 622C1253.79 623.333 1252.33 624.507 1250.25 625.52ZM1228.57 613.68V622.4H1241.21C1243.29 622.4 1244.75 622.08 1245.61 621.44C1246.46 620.8 1246.89 619.68 1246.89 618.08C1246.89 615.147 1244.86 613.68 1240.81 613.68H1228.57ZM1228.57 630V640.4H1241.29C1245.82 640.4 1248.09 638.747 1248.09 635.44C1248.09 633.467 1247.55 632.08 1246.49 631.28C1245.42 630.427 1243.69 630 1241.29 630H1228.57ZM1282.89 604.88C1288.92 604.88 1293.34 606.213 1296.17 608.88C1299.05 611.547 1300.49 615.707 1300.49 621.36V648H1291.77V641.28C1289.32 646.56 1284.97 649.2 1278.73 649.2C1268.7 649.2 1263.69 644.853 1263.69 636.16C1263.69 627.04 1269.53 622.48 1281.21 622.48C1285.21 622.48 1288.73 623.04 1291.77 624.16V621.36C1291.77 618.32 1291.05 616.107 1289.61 614.72C1288.17 613.28 1285.93 612.56 1282.89 612.56C1279.96 612.56 1277.82 612.96 1276.49 613.76C1275.16 614.507 1274.41 615.867 1274.25 617.84H1265.69C1266.12 609.2 1271.85 604.88 1282.89 604.88ZM1281.13 641.84C1284.28 641.84 1286.81 641.013 1288.73 639.36C1290.65 637.707 1291.66 635.52 1291.77 632.8V631.44C1288.78 630.32 1285.48 629.76 1281.85 629.76C1275.72 629.76 1272.65 631.893 1272.65 636.16C1272.65 639.947 1275.48 641.84 1281.13 641.84ZM1339.07 622.32V606.08H1348.19V648H1339.07V629.92H1320.91V648H1311.79V606.08H1320.91V622.32H1339.07ZM1384.16 606.08H1399.6V648H1390.48V613.68H1389.52L1375.12 648H1359.68V606.08H1368.8V640.4H1369.68L1384.16 606.08ZM1450.53 627.2V629.68H1417.89C1418.15 634.053 1419.22 637.12 1421.09 638.88C1422.95 640.64 1426.02 641.52 1430.29 641.52C1436.9 641.52 1440.58 639.52 1441.33 635.52H1449.89C1449.51 640 1447.65 643.413 1444.29 645.76C1440.93 648.053 1436.21 649.2 1430.13 649.2C1422.82 649.2 1417.46 647.413 1414.05 643.84C1410.63 640.213 1408.93 634.56 1408.93 626.88C1408.93 619.307 1410.61 613.76 1413.97 610.24C1417.33 606.667 1422.61 604.88 1429.81 604.88C1437.11 604.88 1442.39 606.613 1445.65 610.08C1448.9 613.547 1450.53 619.253 1450.53 627.2ZM1429.89 612.56C1426.1 612.56 1423.3 613.28 1421.49 614.72C1419.67 616.16 1418.53 618.613 1418.05 622.08H1441.25C1441.03 618.72 1440.05 616.293 1438.29 614.8C1436.53 613.307 1433.73 612.56 1429.89 612.56Z" fill="#101010"/>
<defs>
<clipPath id="clip0_4674_8257">
<rect width="715" height="144" fill="white" transform="translate(313 404.49) rotate(-20.8505)"/>
</clipPath>
<clipPath id="clip1_4674_8257">
<rect width="346" height="144" fill="white" transform="translate(1767.2 100) rotate(58.8208)"/>
</clipPath>
<clipPath id="clip2_4674_8257">
<rect width="801" height="144" fill="white" transform="translate(1300.32 344) rotate(14.6078)"/>
</clipPath>
<clipPath id="clip3_4674_8257">
<rect width="947" height="144" fill="white" transform="translate(718 402.426) rotate(-20.8738)"/>
</clipPath>
<clipPath id="clip4_4674_8257">
<rect width="415" height="144" fill="white" transform="translate(0 596.821) rotate(-54.2543)"/>
</clipPath>
</defs>
</svg>
